<?xml version="1.0" encoding="UTF-8"?>
<svg id="Capa_1" data-name="Capa 1" xmlns="http://www.w3.org/2000/svg" version="1.1" viewBox="0 0 448 465">
  <defs>
    <style>
      .cls-1 {
        fill: #000;
      }

      .cls-1, .cls-2, .cls-3 {
        stroke-width: 0px;
      }

      .cls-2 {
        fill: #6300ff;
      }

      .cls-3 {
        fill: #fff;
      }

      .cls-4 {
        display: none;
      }
    </style>
  </defs>
  <rect class="cls-2" x="2.9" y="-1.1" width="442.1" height="465" rx="92.7" ry="92.7"/>
  <g class="cls-4">
    <path class="cls-3" d="M140.5,359.5l5.3,3.1c22.2,13.2,48.6,29.7,74.7,29.7,79.9,0,155.5-73.1,155.5-153s-20.1-81.9-47.5-109.3c-27.3-27.4-69.3-43-108-43-80,0-155.7,70.9-155.7,150.8s17.5,54,32,77.1l3.5,5.5-14.6,53.5,54.9-14.4h-.1ZM146.1,162.8c4-4.3,8.7-5.4,11.6-5.4s5.8,0,8.3.2c2.7.2,6.3-1,9.8,7.5,3.6,8.7,12.3,30.1,13.4,32.3,1.1,2.2,1.8,4.7.4,7.6-8.3,16.6-17.3,16.1-12.8,23.8,16.9,29,33.7,39,59.3,51.8,4.3,2.2,6.9,1.8,9.4-1.1,2.6-3,10.9-12.7,13.8-17.1s5.8-3.7,9.8-2.2c4,1.4,25.5,11.9,29.8,14.1,4.3,2.1,7.2,3.2,8.3,5.2,1.1,1.8,1.1,10.5-2.5,20.7s-21,19.5-29.4,20.7c-13.8,2-24.7,1-52.3-10.9-43.8-18.9-72.3-62.9-74.5-65.8-2.1-2.9-17.8-23.6-17.8-45.1s11.2-32,15.2-36.4h.2Z"/>
    <path class="cls-1" d="M79.9,345.2l-12.7,55.5,12.7.8,69.9-18.4c23.8,13,50.6,19.8,78,19.8h0c89.9,0,161.2-73.3,161.2-163.2s-15-84.5-45.8-115.4c-11.2-11.2-23.8-20.6-37.3-28-23.7-13-50.4-19.8-78.1-19.8s-54.8,7.2-77.9,19.8c-30.6,16.7-55.3,42.9-70.1,74.6-9.7,20.9-15.2,44.2-15.2,68.7s5.2,47.5,15.2,69c2,4.3,4.2,8.5,6.6,12.6M122.8,292.7c-12-19-18.3-40.9-18.3-63.4,0-65.6,53.9-119.1,120.1-119.1s62.2,12.4,84.8,34.9,36.6,52.4,36.5,84.2c0,65.7-55.2,119.2-121.4,119.2s-42.7-5.7-61.2-16.6l-4.4-2.6-45.4,11.8,12.1-44-2.9-4.5h0Z"/>
    <path class="cls-1" d="M223.1,309.9c27.7,11.9,38.5,13,52.3,10.9,8.4-1.3,25.8-10.5,29.4-20.7s3.6-18.9,2.5-20.7c-1-2-3.9-3.1-8.3-5.2-4.3-2.2-25.8-12.7-29.8-14.1-4-1.5-6.9-2.2-9.8,2.2s-11.2,14.1-13.8,17.1c-2.5,2.9-5.1,3.3-9.4,1.1-25.6-12.8-42.4-22.9-59.3-51.9-4.5-7.7,4.5-7.2,12.8-23.8,1.4-2.9.7-5.4-.4-7.6-1.1-2.2-9.8-23.7-13.4-32.4-3.5-8.5-7.2-7.3-9.8-7.5-2.5-.2-5.4-.2-8.3-.2s-7.6,1.1-11.6,5.4c-4,4.4-15.2,14.9-15.2,36.4s15.6,42.2,17.8,45.1c2.2,2.9,30.7,46.9,74.5,65.9h-.2Z"/>
  </g>
  <rect class="cls-3" x="211.5" y="47.3" width="25" height="392" transform="translate(237.6 -87.1) rotate(45)"/>
  <rect class="cls-3" x="211.5" y="47.2" width="25" height="392" transform="translate(554.4 256.8) rotate(135)"/>
</svg>