<?xml version="1.0" encoding="UTF-8"?>
<svg id="Capa_1" data-name="Capa 1" xmlns="http://www.w3.org/2000/svg" version="1.1" viewBox="0 0 100 100">
  <defs>
    <style>
      .cls-1 {
        fill: #5a00c9;
        stroke: #000;
        stroke-miterlimit: 10;
      }

      .cls-2 {
        fill: #fff;
        stroke: #fff;
      }
    </style>
  </defs>
  <rect class="cls-1" x="2.1" y="2" width="95.8" height="95.9" rx="11.8" ry="11.8"/>
  <g>
    <g>
      <path class="cls-2" d="M66.5,42.6v-4.3c0-.3.4-.7.8-.9,3.2-1.6,6.4-3.2,9.7-4.7l1.2-.6c-3.7-1.7-7.2-3.5-10.8-5.1-.7-.3-1-.7-1-1.5,0-1.2,0-2.4,0-3.8,1.6.8,3.1,1.6,4.6,2.4,3.5,1.8,6.9,3.6,10.4,5.4.7.3.9.7.9,1.5q.2,3.2-2.6,4.7c-4.1,2.2-8.1,4.3-12.2,6.5,0,0-.5.2-1,.4Z"/>
      <path class="cls-2" d="M52.4,21.7c0,1.6,0,3,0,4.4,0,.3-.5.8-.9.9-3.1,1.6-6.2,3.1-9.3,4.7-.4.2-.7.4-1.2.6,3,1.4,5.8,3,8.7,4.2,2.3.9,3.2,2.1,2.8,4.5,0,.5,0,1,0,1.7-.4-.2-.8-.3-1.2-.5-4.6-2.4-9.2-4.9-13.9-7.3-.8-.4-.9-.9-1-1.7-.3-2.2.5-3.3,2.5-4.3,4.1-2,8.1-4.3,12.1-6.5.4-.2.8-.4,1.4-.7Z"/>
      <path class="cls-2" d="M60.8,15.7h3.8c-2,9.5-3.9,19-5.9,28.5h-3.8c2-9.5,4-19,5.9-28.5Z"/>
    </g>
    <path class="cls-2" d="M45.1,63.2c1,1,1.6,2.2,1.7,3.6,0,2.7,0,5.3,0,8s.9,4,2.7,5.3c.5.3.6.7.6,1.2v8.4c0,3.2,2.5,6,5.7,6.2,2.3.2,4.6,0,6.9,0,4,0,6.8-2.8,6.8-6.8v-8c0-.5,0-.8.5-1.1,1.5-1.1,2.5-2.6,2.6-4.5,0-2.2,0-4.4,0-6.6s6.3-10.6,11.3-20.3c3.6-7,5.9-13.6,5.8-19.1,0-5.5-2.1-8.5-3.6-11-5.1-8.8-15.1-12.2-26-12.2s-7.9.3-13.5,2.4c-4.5,1.7-8.9,4.8-12,8.2-3,3.3-5.6,10.6-5,17.6.5,6,3.9,11.9,5,14,4.4,7.7,9.9,14.2,10.3,14.6ZM64.1,92.5c-2.8.3-5.6.2-8.3,0-1.4,0-2.3-1.6-2.4-3.1v-1.6h12.9c.6,2.3-.3,4.5-2.2,4.7ZM53.4,84.6v-3.2h12.9v3.2h-12.9ZM74.8,58.9c-1.6,3.3-5.1,6-5.1,9.6v6.3c0,2-1.4,3.3-3.4,3.3h-12.7c-2.1,0-3.4-1.3-3.5-3.5v-5.8c0-2.1-5-8.6-9.7-16.3-4.6-7.5-9-16.3-8-21.7,2.4-12.9,11.5-21.9,30.7-21,8.9.4,22.9,8.1,23.6,19.4.9,13.1-10,25.7-11.9,29.7Z"/>
    <path class="cls-2" d="M31,33.1c-.1,0-.2-.2-.2-.2,0-.9-.6-1.1-1.3-1.2-3-.3-5.9,1.5-6.9,4.3s.2,6,2.8,7.6c2.6,1.6,5.8,1.2,8-1l2.3,2.3c-3.2,3.2-7.9,3.9-11.8,1.7-3.9-2.1-5.7-6.5-4.6-11.1.6-2.4,2.1-4.3,4.2-5.6,2.1-1.3,4.4-1.7,6.8-1.4.1-1.8.2-3.5.3-5.4-.2.3-.3.5-.4.7-1.4,2.4-4,2.6-5.7.5-.8-1-1.6-1.9-2.3-2.9-1.3.7-2.5,1.3-3.7,2,.4,1.1.7,2.3,1.1,3.5.8,2.7-.8,4.7-3.6,4.5-1.1-.1-2.2-.2-3.3-.3-.4,0-.6.1-.7.5-.2.9-.5,1.8-.8,2.6-.2.5,0,.7.4.9,1.1.6,2.1,1.1,3.1,1.7,2,1.2,2.2,3.8.4,5.3-1,.9-2.1,1.7-3.1,2.5.7,1.3,1.3,2.5,2,3.7,1.1-.3,2.3-.7,3.4-1.1,2.7-.9,4.8.8,4.5,3.7-.1,1-.2,2.1-.3,3.1,0,.4,0,.7.5.8.9.2,1.8.5,2.6.8.4,0,.6,0,.8-.3.6-1.1,1.2-2.1,1.8-3.2,1.1-2,3.8-2.3,5.3-.5.9,1,1.7,2.1,2.7,3.3,1.4-.8,2.8-1.6,4.2-2.5l.2.2c-.2.9-.5,1.8-.6,2.7,0,1-.6,1.6-1.5,2-.6.2-1.1.6-1.7.9-1.1.6-1.8.4-2.5-.5-1-1.3-2.1-2.6-3.1-3.9-.1.2-.3.3-.4.4-.7,1.3-1.5,2.7-2.2,4-.6,1-1.2,1.3-2.3,1-1.9-.6-3.8-1.1-5.7-1.7-1.1-.3-1.4-.9-1.3-2,.1-1.7.3-3.4.4-5.2-.3,0-.5,0-.8.2-1.4.4-2.8.9-4.2,1.3-1.1.3-1.7,0-2.2-.9-1-1.9-2-3.8-3.1-5.7-.5-.9-.3-1.7.5-2.3,1.1-.9,2.3-1.8,3.4-2.7.2-.2.4-.3.6-.6-1.5-.8-2.8-1.6-4.2-2.3-1.4-.8-1.6-1.2-1.1-2.8.5-1.7,1.1-3.5,1.6-5.2.4-1.4.9-1.7,2.4-1.5,1.6.1,3.2.3,4.9.4-.2-.7-.3-1.2-.5-1.7-.4-1.1-.7-2.2-1.1-3.3-.3-.9,0-1.6.8-2.1,2-1.1,3.9-2.1,5.9-3.2.8-.4,1.6-.3,2.2.5.9,1.2,1.9,2.3,2.8,3.5.2.2.3.4.5.6.8-1.4,1.5-2.7,2.2-4.1.8-1.5,2.3.1,4.1.4l-2.5,14.3Z"/>
  </g>
</svg>